<svg width="24" height="12" viewBox="0 0 24 12" fill="none" xmlns="http://www.w3.org/2000/svg">
<path d="M0.692766 1.37378H22.7907C23.1782 1.37378 23.4952 1.0685 23.4952 0.681023C23.4952 0.305287 23.1782 0 22.7907 0H0.692766C0.305287 0 0 0.305287 0 0.681023C0 1.0685 0.305287 1.37378 0.692766 1.37378ZM0.692766 6.69279H22.7907C23.1782 6.69279 23.4952 6.38751 23.4952 6.00003C23.4952 5.61255 23.1782 5.30727 22.7907 5.30727H0.692766C0.305287 5.30727 0 5.61255 0 6.00003C0 6.38751 0.305287 6.69279 0.692766 6.69279ZM0.692766 12H22.7907C23.1782 12 23.4952 11.6948 23.4952 11.3073C23.4952 10.9198 23.1782 10.6145 22.7907 10.6145H0.692766C0.305287 10.6145 0 10.9198 0 11.3073C0 11.6948 0.305287 12 0.692766 12Z" fill="black"/>
</svg>
