<svg width="19" height="15" viewBox="0 0 19 15" fill="none" xmlns="http://www.w3.org/2000/svg">
<path d="M0 7.50003C0 7.74735 0.108847 7.97491 0.306734 8.16296L6.87665 14.7328C7.08444 14.9209 7.29222 15 7.51979 15C8.01453 15 8.39052 14.6438 8.39052 14.1491C8.39052 13.9215 8.30146 13.684 8.1431 13.5257L5.93668 11.2698L2.59235 8.23216L4.99671 8.39052H17.5033C18.0178 8.39052 18.374 8.01453 18.374 7.50003C18.374 6.98553 18.0178 6.61936 17.5033 6.61936H4.99671L2.60224 6.76779L5.93668 3.73021L8.1431 1.48418C8.31139 1.31596 8.39052 1.08839 8.39052 0.85093C8.39052 0.366097 8.01453 0 7.51979 0C7.29222 0 7.07455 0.0890497 6.85686 0.296835L0.306734 6.83709C0.108847 7.03497 0 7.26253 0 7.50003Z" fill="white"/>
</svg>
