<svg width="22" height="20" viewBox="0 0 22 20" fill="none" xmlns="http://www.w3.org/2000/svg">
<path d="M10.5816 18.8539H4.40062C2.72084 18.8539 1.3579 17.6994 1.3579 16.286V3.71391C1.3579 2.29626 2.72587 1.14601 4.40062 1.14601H10.6822C11.0594 1.14601 11.3611 0.891339 11.3611 0.573004C11.3611 0.254668 11.0594 0 10.6822 0H4.40062C1.97148 0 0 1.66808 0 3.71391V16.286C0 18.3361 1.9765 20 4.40062 20H10.5816C10.9588 20 11.2605 19.7453 11.2605 19.4269C11.2605 19.1086 10.9538 18.8539 10.5816 18.8539Z" fill="black"/>
<path d="M21.7667 9.59675L17.4516 5.95499C17.185 5.73004 16.7575 5.73004 16.491 5.95499C16.2244 6.17995 16.2244 6.54073 16.491 6.76569L19.6494 9.43122H5.87419C5.49699 9.43122 5.19524 9.68589 5.19524 10.0042C5.19524 10.3226 5.49699 10.5772 5.87419 10.5772H19.6494L16.491 13.2428C16.2244 13.4677 16.2244 13.8285 16.491 14.0534C16.6217 14.1638 16.7978 14.2232 16.9688 14.2232C17.1398 14.2232 17.3158 14.168 17.4465 14.0534L21.7617 10.4117C22.0332 10.1825 22.0332 9.81746 21.7667 9.59675Z" fill="black"/>
</svg>
