<?xml version="1.0" encoding="utf-8"?>
<svg viewBox="456.076 326.774 22.166 17.564" xmlns="http://www.w3.org/2000/svg">
  <path d="M 466.935 329.934 C 463.496 329.934 460.377 332.038 458.076 335.456 C 457.888 335.736 457.888 336.127 458.076 336.407 C 460.377 339.83 463.496 341.934 466.935 341.934 C 470.374 341.934 473.493 339.83 475.794 336.412 C 475.982 336.132 475.982 335.74 475.794 335.46 C 473.493 332.038 470.374 329.934 466.935 329.934 Z M 467.182 340.159 C 464.899 340.32 463.014 338.215 463.157 335.658 C 463.275 333.549 464.803 331.84 466.688 331.709 C 468.971 331.548 470.856 333.652 470.713 336.21 C 470.591 338.314 469.063 340.023 467.182 340.159 Z M 467.068 338.207 C 465.838 338.294 464.821 337.161 464.902 335.786 C 464.965 334.649 465.79 333.731 466.806 333.657 C 468.036 333.57 469.052 334.703 468.971 336.078 C 468.905 337.219 468.08 338.137 467.068 338.207 Z" fill="#292929"/>
</svg>