<svg width="18" height="17" viewBox="0 0 18 17" fill="none" xmlns="http://www.w3.org/2000/svg">
<path d="M9 2.48923C5.56091 2.48923 2.44216 4.59355 0.140841 8.01153C-0.0469469 8.29156 -0.0469469 8.68278 0.140841 8.9628C2.44216 12.3849 5.56091 14.4892 9 14.4892C12.4391 14.4892 15.5578 12.3849 17.8592 8.96692C18.0469 8.68689 18.0469 8.29568 17.8592 8.01565C15.5578 4.59355 12.4391 2.48923 9 2.48923ZM9.2467 12.7143C6.96379 12.875 5.07855 10.7706 5.22215 8.21332C5.33998 6.10488 6.86806 4.39588 8.7533 4.26411C11.0362 4.1035 12.9214 6.20783 12.7778 8.76514C12.6563 10.8695 11.1283 12.5785 9.2467 12.7143ZM9.13256 10.7624C7.90273 10.8489 6.88647 9.71641 6.96747 8.34098C7.03007 7.2044 7.85486 6.28607 8.87113 6.21195C10.101 6.12547 11.1172 7.25793 11.0362 8.63336C10.9699 9.77406 10.1451 10.6924 9.13256 10.7624Z" fill="#292929"/>
<path d="M1.57141 1.06065L15.9037 15.3929" stroke="#292929" stroke-width="1.5" stroke-linecap="square"/>
</svg>
